<?xml version="1.0" encoding="UTF-8"?>
<!DOCTYPE svg PUBLIC "-//W3C//DTD SVG 1.1//EN" "http://www.w3.org/Graphics/SVG/1.1/DTD/svg11.dtd">
<svg xmlns="http://www.w3.org/2000/svg" version="1.1" width="202px" height="200px" style="shape-rendering:geometricPrecision; text-rendering:geometricPrecision; image-rendering:optimizeQuality; fill-rule:evenodd; clip-rule:evenodd" xmlns:xlink="http://www.w3.org/1999/xlink">
<g><path style="opacity:1" fill="#22273e" d="M -0.5,-0.5 C 0.166667,-0.5 0.833333,-0.5 1.5,-0.5C 1.5,66.1667 1.5,132.833 1.5,199.5C 0.833333,199.5 0.166667,199.5 -0.5,199.5C -0.5,132.833 -0.5,66.1667 -0.5,-0.5 Z"/></g>
<g><path style="opacity:1" fill="#fcfdfc" d="M 1.5,-0.5 C 68.1667,-0.5 134.833,-0.5 201.5,-0.5C 201.5,66.1667 201.5,132.833 201.5,199.5C 134.833,199.5 68.1667,199.5 1.5,199.5C 1.5,132.833 1.5,66.1667 1.5,-0.5 Z"/></g>
<g><path style="opacity:1" fill="#010201" d="M 14.5,12.5 C 28.5,12.5 42.5,12.5 56.5,12.5C 56.5,26.5 56.5,40.5 56.5,54.5C 42.5,54.5 28.5,54.5 14.5,54.5C 14.5,40.5 14.5,26.5 14.5,12.5 Z"/></g>
<g><path style="opacity:1" fill="#030303" d="M 80.5,18.5 C 80.5,16.5 80.5,14.5 80.5,12.5C 84.5,12.5 88.5,12.5 92.5,12.5C 92.5,14.5 92.5,16.5 92.5,18.5C 96.5,18.5 100.5,18.5 104.5,18.5C 104.5,16.5 104.5,14.5 104.5,12.5C 108.5,12.5 112.5,12.5 116.5,12.5C 116.5,16.5 116.5,20.5 116.5,24.5C 118.5,24.5 120.5,24.5 122.5,24.5C 122.5,26.5 122.5,28.5 122.5,30.5C 116.5,30.5 110.5,30.5 104.5,30.5C 104.5,32.5 104.5,34.5 104.5,36.5C 106.5,36.5 108.5,36.5 110.5,36.5C 110.5,40.5 110.5,44.5 110.5,48.5C 108.5,48.5 106.5,48.5 104.5,48.5C 104.5,46.5 104.5,44.5 104.5,42.5C 100.5,42.5 96.5,42.5 92.5,42.5C 92.5,40.5 92.5,38.5 92.5,36.5C 94.5,36.5 96.5,36.5 98.5,36.5C 98.5,32.5 98.5,28.5 98.5,24.5C 96.5,24.5 94.5,24.5 92.5,24.5C 92.5,26.5 92.5,28.5 92.5,30.5C 88.5,30.5 84.5,30.5 80.5,30.5C 80.5,32.5 80.5,34.5 80.5,36.5C 82.5,36.5 84.5,36.5 86.5,36.5C 86.5,40.5 86.5,44.5 86.5,48.5C 88.5,48.5 90.5,48.5 92.5,48.5C 92.5,52.5 92.5,56.5 92.5,60.5C 88.5,60.5 84.5,60.5 80.5,60.5C 80.5,64.5 80.5,68.5 80.5,72.5C 76.5,72.5 72.5,72.5 68.5,72.5C 68.5,70.5 68.5,68.5 68.5,66.5C 66.5,66.5 64.5,66.5 62.5,66.5C 62.5,56.5 62.5,46.5 62.5,36.5C 66.5,36.5 70.5,36.5 74.5,36.5C 74.5,32.5 74.5,28.5 74.5,24.5C 70.5,24.5 66.5,24.5 62.5,24.5C 62.5,20.5 62.5,16.5 62.5,12.5C 64.5,12.5 66.5,12.5 68.5,12.5C 68.5,14.5 68.5,16.5 68.5,18.5C 72.5,18.5 76.5,18.5 80.5,18.5 Z"/></g>
<g><path style="opacity:1" fill="#020202" d="M 122.5,42.5 C 122.5,38.5 122.5,34.5 122.5,30.5C 124.5,30.5 126.5,30.5 128.5,30.5C 128.5,28.5 128.5,26.5 128.5,24.5C 130.5,24.5 132.5,24.5 134.5,24.5C 134.5,20.5 134.5,16.5 134.5,12.5C 136.5,12.5 138.5,12.5 140.5,12.5C 140.5,22.5 140.5,32.5 140.5,42.5C 138.5,42.5 136.5,42.5 134.5,42.5C 134.5,40.5 134.5,38.5 134.5,36.5C 132.5,36.5 130.5,36.5 128.5,36.5C 128.5,38.5 128.5,40.5 128.5,42.5C 126.5,42.5 124.5,42.5 122.5,42.5 Z"/></g>
<g><path style="opacity:1" fill="#020202" d="M 146.5,12.5 C 160.5,12.5 174.5,12.5 188.5,12.5C 188.5,26.5 188.5,40.5 188.5,54.5C 174.5,54.5 160.5,54.5 146.5,54.5C 146.5,40.5 146.5,26.5 146.5,12.5 Z"/></g>
<g><path style="opacity:1" fill="#fcfcfc" d="M 20.5,18.5 C 30.5,18.5 40.5,18.5 50.5,18.5C 50.5,28.5 50.5,38.5 50.5,48.5C 40.5,48.5 30.5,48.5 20.5,48.5C 20.5,38.5 20.5,28.5 20.5,18.5 Z"/></g>
<g><path style="opacity:1" fill="#fcfcfc" d="M 152.5,18.5 C 162.5,18.5 172.5,18.5 182.5,18.5C 182.5,28.5 182.5,38.5 182.5,48.5C 172.5,48.5 162.5,48.5 152.5,48.5C 152.5,38.5 152.5,28.5 152.5,18.5 Z"/></g>
<g><path style="opacity:1" fill="#fbfbfb" d="M 80.5,18.5 C 82.5,18.5 84.5,18.5 86.5,18.5C 86.5,20.5 86.5,22.5 86.5,24.5C 84.5,24.5 82.5,24.5 80.5,24.5C 80.5,22.5 80.5,20.5 80.5,18.5 Z"/></g>
<g><path style="opacity:1" fill="#fbfbfb" d="M 104.5,18.5 C 106.5,18.5 108.5,18.5 110.5,18.5C 110.5,20.5 110.5,22.5 110.5,24.5C 108.5,24.5 106.5,24.5 104.5,24.5C 104.5,22.5 104.5,20.5 104.5,18.5 Z"/></g>
<g><path style="opacity:1" fill="#010101" d="M 26.5,24.5 C 32.5,24.5 38.5,24.5 44.5,24.5C 44.5,30.5 44.5,36.5 44.5,42.5C 38.5,42.5 32.5,42.5 26.5,42.5C 26.5,36.5 26.5,30.5 26.5,24.5 Z"/></g>
<g><path style="opacity:1" fill="#fbfbfb" d="M 104.5,48.5 C 102.5,48.5 100.5,48.5 98.5,48.5C 98.5,52.5 98.5,56.5 98.5,60.5C 96.5,60.5 94.5,60.5 92.5,60.5C 92.5,56.5 92.5,52.5 92.5,48.5C 90.5,48.5 88.5,48.5 86.5,48.5C 86.5,44.5 86.5,40.5 86.5,36.5C 84.5,36.5 82.5,36.5 80.5,36.5C 80.5,34.5 80.5,32.5 80.5,30.5C 84.5,30.5 88.5,30.5 92.5,30.5C 92.5,28.5 92.5,26.5 92.5,24.5C 94.5,24.5 96.5,24.5 98.5,24.5C 98.5,28.5 98.5,32.5 98.5,36.5C 96.5,36.5 94.5,36.5 92.5,36.5C 92.5,38.5 92.5,40.5 92.5,42.5C 96.5,42.5 100.5,42.5 104.5,42.5C 104.5,44.5 104.5,46.5 104.5,48.5 Z"/></g>
<g><path style="opacity:1" fill="#000000" d="M 158.5,24.5 C 164.5,24.5 170.5,24.5 176.5,24.5C 176.5,30.5 176.5,36.5 176.5,42.5C 170.5,42.5 164.5,42.5 158.5,42.5C 158.5,36.5 158.5,30.5 158.5,24.5 Z"/></g>
<g><path style="opacity:1" fill="#fcfcfc" d="M 122.5,30.5 C 122.5,34.5 122.5,38.5 122.5,42.5C 120.5,42.5 118.5,42.5 116.5,42.5C 116.5,44.5 116.5,46.5 116.5,48.5C 114.5,48.5 112.5,48.5 110.5,48.5C 110.5,44.5 110.5,40.5 110.5,36.5C 108.5,36.5 106.5,36.5 104.5,36.5C 104.5,34.5 104.5,32.5 104.5,30.5C 110.5,30.5 116.5,30.5 122.5,30.5 Z"/></g>
<g><path style="opacity:1" fill="#fbfbfb" d="M 80.5,48.5 C 78.5,48.5 76.5,48.5 74.5,48.5C 74.5,52.5 74.5,56.5 74.5,60.5C 72.5,60.5 70.5,60.5 68.5,60.5C 68.5,54.5 68.5,48.5 68.5,42.5C 72.5,42.5 76.5,42.5 80.5,42.5C 80.5,44.5 80.5,46.5 80.5,48.5 Z"/></g>
<g><path style="opacity:1" fill="#050505" d="M 122.5,42.5 C 122.5,44.5 122.5,46.5 122.5,48.5C 120.5,48.5 118.5,48.5 116.5,48.5C 116.5,46.5 116.5,44.5 116.5,42.5C 118.5,42.5 120.5,42.5 122.5,42.5 Z"/></g>
<g><path style="opacity:1" fill="#fcfcfc" d="M 80.5,48.5 C 82.5,48.5 84.5,48.5 86.5,48.5C 86.5,50.5 86.5,52.5 86.5,54.5C 84.5,54.5 82.5,54.5 80.5,54.5C 80.5,52.5 80.5,50.5 80.5,48.5 Z"/></g>
<g><path style="opacity:1" fill="#030303" d="M 104.5,48.5 C 104.5,50.5 104.5,52.5 104.5,54.5C 106.5,54.5 108.5,54.5 110.5,54.5C 110.5,52.5 110.5,50.5 110.5,48.5C 112.5,48.5 114.5,48.5 116.5,48.5C 116.5,52.5 116.5,56.5 116.5,60.5C 118.5,60.5 120.5,60.5 122.5,60.5C 122.5,64.5 122.5,68.5 122.5,72.5C 120.5,72.5 118.5,72.5 116.5,72.5C 116.5,70.5 116.5,68.5 116.5,66.5C 114.5,66.5 112.5,66.5 110.5,66.5C 110.5,64.5 110.5,62.5 110.5,60.5C 108.5,60.5 106.5,60.5 104.5,60.5C 104.5,64.5 104.5,68.5 104.5,72.5C 100.5,72.5 96.5,72.5 92.5,72.5C 92.5,68.5 92.5,64.5 92.5,60.5C 94.5,60.5 96.5,60.5 98.5,60.5C 98.5,56.5 98.5,52.5 98.5,48.5C 100.5,48.5 102.5,48.5 104.5,48.5 Z"/></g>
<g><path style="opacity:1" fill="#fcfcfc" d="M 104.5,48.5 C 106.5,48.5 108.5,48.5 110.5,48.5C 110.5,50.5 110.5,52.5 110.5,54.5C 108.5,54.5 106.5,54.5 104.5,54.5C 104.5,52.5 104.5,50.5 104.5,48.5 Z"/></g>
<g><path style="opacity:1" fill="#040404" d="M 122.5,48.5 C 124.5,48.5 126.5,48.5 128.5,48.5C 128.5,50.5 128.5,52.5 128.5,54.5C 126.5,54.5 124.5,54.5 122.5,54.5C 122.5,52.5 122.5,50.5 122.5,48.5 Z"/></g>
<g><path style="opacity:1" fill="#030303" d="M 134.5,48.5 C 136.5,48.5 138.5,48.5 140.5,48.5C 140.5,50.5 140.5,52.5 140.5,54.5C 138.5,54.5 136.5,54.5 134.5,54.5C 134.5,52.5 134.5,50.5 134.5,48.5 Z"/></g>
<g><path style="opacity:1" fill="#030303" d="M 44.5,66.5 C 44.5,68.5 44.5,70.5 44.5,72.5C 48.5,72.5 52.5,72.5 56.5,72.5C 56.5,74.5 56.5,76.5 56.5,78.5C 48.5,78.5 40.5,78.5 32.5,78.5C 32.5,76.5 32.5,74.5 32.5,72.5C 30.5,72.5 28.5,72.5 26.5,72.5C 26.5,70.5 26.5,68.5 26.5,66.5C 22.5,66.5 18.5,66.5 14.5,66.5C 14.5,64.5 14.5,62.5 14.5,60.5C 20.5,60.5 26.5,60.5 32.5,60.5C 32.5,62.5 32.5,64.5 32.5,66.5C 36.5,66.5 40.5,66.5 44.5,66.5 Z"/></g>
<g><path style="opacity:1" fill="#020202" d="M 56.5,66.5 C 52.5,66.5 48.5,66.5 44.5,66.5C 44.5,64.5 44.5,62.5 44.5,60.5C 48.5,60.5 52.5,60.5 56.5,60.5C 56.5,62.5 56.5,64.5 56.5,66.5 Z"/></g>
<g><path style="opacity:1" fill="#030303" d="M 164.5,78.5 C 158.5,78.5 152.5,78.5 146.5,78.5C 146.5,80.5 146.5,82.5 146.5,84.5C 148.5,84.5 150.5,84.5 152.5,84.5C 152.5,86.5 152.5,88.5 152.5,90.5C 154.5,90.5 156.5,90.5 158.5,90.5C 158.5,102.5 158.5,114.5 158.5,126.5C 156.5,126.5 154.5,126.5 152.5,126.5C 152.5,124.5 152.5,122.5 152.5,120.5C 150.5,120.5 148.5,120.5 146.5,120.5C 146.5,116.5 146.5,112.5 146.5,108.5C 144.5,108.5 142.5,108.5 140.5,108.5C 140.5,112.5 140.5,116.5 140.5,120.5C 138.5,120.5 136.5,120.5 134.5,120.5C 134.5,122.5 134.5,124.5 134.5,126.5C 132.5,126.5 130.5,126.5 128.5,126.5C 128.5,128.5 128.5,130.5 128.5,132.5C 126.5,132.5 124.5,132.5 122.5,132.5C 122.5,136.5 122.5,140.5 122.5,144.5C 124.5,144.5 126.5,144.5 128.5,144.5C 128.5,146.5 128.5,148.5 128.5,150.5C 120.5,150.5 112.5,150.5 104.5,150.5C 104.5,154.5 104.5,158.5 104.5,162.5C 108.5,162.5 112.5,162.5 116.5,162.5C 116.5,164.5 116.5,166.5 116.5,168.5C 114.5,168.5 112.5,168.5 110.5,168.5C 110.5,174.5 110.5,180.5 110.5,186.5C 108.5,186.5 106.5,186.5 104.5,186.5C 104.5,180.5 104.5,174.5 104.5,168.5C 100.5,168.5 96.5,168.5 92.5,168.5C 92.5,164.5 92.5,160.5 92.5,156.5C 88.5,156.5 84.5,156.5 80.5,156.5C 80.5,154.5 80.5,152.5 80.5,150.5C 78.5,150.5 76.5,150.5 74.5,150.5C 74.5,152.5 74.5,154.5 74.5,156.5C 70.5,156.5 66.5,156.5 62.5,156.5C 62.5,154.5 62.5,152.5 62.5,150.5C 64.5,150.5 66.5,150.5 68.5,150.5C 68.5,148.5 68.5,146.5 68.5,144.5C 66.5,144.5 64.5,144.5 62.5,144.5C 62.5,142.5 62.5,140.5 62.5,138.5C 56.5,138.5 50.5,138.5 44.5,138.5C 44.5,136.5 44.5,134.5 44.5,132.5C 40.5,132.5 36.5,132.5 32.5,132.5C 32.5,130.5 32.5,128.5 32.5,126.5C 36.5,126.5 40.5,126.5 44.5,126.5C 44.5,124.5 44.5,122.5 44.5,120.5C 48.5,120.5 52.5,120.5 56.5,120.5C 56.5,122.5 56.5,124.5 56.5,126.5C 54.5,126.5 52.5,126.5 50.5,126.5C 50.5,128.5 50.5,130.5 50.5,132.5C 54.5,132.5 58.5,132.5 62.5,132.5C 62.5,126.5 62.5,120.5 62.5,114.5C 64.5,114.5 66.5,114.5 68.5,114.5C 68.5,118.5 68.5,122.5 68.5,126.5C 72.5,126.5 76.5,126.5 80.5,126.5C 80.5,128.5 80.5,130.5 80.5,132.5C 84.5,132.5 88.5,132.5 92.5,132.5C 92.5,130.5 92.5,128.5 92.5,126.5C 94.5,126.5 96.5,126.5 98.5,126.5C 98.5,130.5 98.5,134.5 98.5,138.5C 96.5,138.5 94.5,138.5 92.5,138.5C 92.5,140.5 92.5,142.5 92.5,144.5C 98.5,144.5 104.5,144.5 110.5,144.5C 110.5,142.5 110.5,140.5 110.5,138.5C 108.5,138.5 106.5,138.5 104.5,138.5C 104.5,132.5 104.5,126.5 104.5,120.5C 100.5,120.5 96.5,120.5 92.5,120.5C 92.5,116.5 92.5,112.5 92.5,108.5C 88.5,108.5 84.5,108.5 80.5,108.5C 80.5,110.5 80.5,112.5 80.5,114.5C 78.5,114.5 76.5,114.5 74.5,114.5C 74.5,110.5 74.5,106.5 74.5,102.5C 78.5,102.5 82.5,102.5 86.5,102.5C 86.5,98.5 86.5,94.5 86.5,90.5C 84.5,90.5 82.5,90.5 80.5,90.5C 80.5,88.5 80.5,86.5 80.5,84.5C 84.5,84.5 88.5,84.5 92.5,84.5C 92.5,82.5 92.5,80.5 92.5,78.5C 94.5,78.5 96.5,78.5 98.5,78.5C 98.5,82.5 98.5,86.5 98.5,90.5C 96.5,90.5 94.5,90.5 92.5,90.5C 92.5,92.5 92.5,94.5 92.5,96.5C 96.5,96.5 100.5,96.5 104.5,96.5C 104.5,88.5 104.5,80.5 104.5,72.5C 106.5,72.5 108.5,72.5 110.5,72.5C 110.5,74.5 110.5,76.5 110.5,78.5C 112.5,78.5 114.5,78.5 116.5,78.5C 116.5,80.5 116.5,82.5 116.5,84.5C 118.5,84.5 120.5,84.5 122.5,84.5C 122.5,86.5 122.5,88.5 122.5,90.5C 124.5,90.5 126.5,90.5 128.5,90.5C 128.5,86.5 128.5,82.5 128.5,78.5C 126.5,78.5 124.5,78.5 122.5,78.5C 122.5,76.5 122.5,74.5 122.5,72.5C 124.5,72.5 126.5,72.5 128.5,72.5C 128.5,70.5 128.5,68.5 128.5,66.5C 132.5,66.5 136.5,66.5 140.5,66.5C 140.5,64.5 140.5,62.5 140.5,60.5C 148.5,60.5 156.5,60.5 164.5,60.5C 164.5,62.5 164.5,64.5 164.5,66.5C 160.5,66.5 156.5,66.5 152.5,66.5C 152.5,68.5 152.5,70.5 152.5,72.5C 156.5,72.5 160.5,72.5 164.5,72.5C 164.5,74.5 164.5,76.5 164.5,78.5 Z"/></g>
<g><path style="opacity:1" fill="#040404" d="M 182.5,72.5 C 180.5,72.5 178.5,72.5 176.5,72.5C 176.5,68.5 176.5,64.5 176.5,60.5C 180.5,60.5 184.5,60.5 188.5,60.5C 188.5,62.5 188.5,64.5 188.5,66.5C 186.5,66.5 184.5,66.5 182.5,66.5C 182.5,68.5 182.5,70.5 182.5,72.5 Z"/></g>
<g><path style="opacity:1" fill="#fdfdfd" d="M 44.5,66.5 C 48.5,66.5 52.5,66.5 56.5,66.5C 56.5,68.5 56.5,70.5 56.5,72.5C 52.5,72.5 48.5,72.5 44.5,72.5C 44.5,70.5 44.5,68.5 44.5,66.5 Z"/></g>
<g><path style="opacity:1" fill="#020202" d="M 56.5,66.5 C 58.5,66.5 60.5,66.5 62.5,66.5C 62.5,68.5 62.5,70.5 62.5,72.5C 60.5,72.5 58.5,72.5 56.5,72.5C 56.5,70.5 56.5,68.5 56.5,66.5 Z"/></g>
<g><path style="opacity:1" fill="#fcfcfc" d="M 62.5,66.5 C 64.5,66.5 66.5,66.5 68.5,66.5C 68.5,68.5 68.5,70.5 68.5,72.5C 66.5,72.5 64.5,72.5 62.5,72.5C 62.5,70.5 62.5,68.5 62.5,66.5 Z"/></g>
<g><path style="opacity:1" fill="#fafafa" d="M 122.5,72.5 C 122.5,74.5 122.5,76.5 122.5,78.5C 124.5,78.5 126.5,78.5 128.5,78.5C 128.5,82.5 128.5,86.5 128.5,90.5C 126.5,90.5 124.5,90.5 122.5,90.5C 122.5,88.5 122.5,86.5 122.5,84.5C 120.5,84.5 118.5,84.5 116.5,84.5C 116.5,82.5 116.5,80.5 116.5,78.5C 114.5,78.5 112.5,78.5 110.5,78.5C 110.5,76.5 110.5,74.5 110.5,72.5C 108.5,72.5 106.5,72.5 104.5,72.5C 104.5,68.5 104.5,64.5 104.5,60.5C 106.5,60.5 108.5,60.5 110.5,60.5C 110.5,62.5 110.5,64.5 110.5,66.5C 112.5,66.5 114.5,66.5 116.5,66.5C 116.5,68.5 116.5,70.5 116.5,72.5C 118.5,72.5 120.5,72.5 122.5,72.5 Z"/></g>
<g><path style="opacity:1" fill="#030403" d="M 14.5,72.5 C 16.5,72.5 18.5,72.5 20.5,72.5C 20.5,76.5 20.5,80.5 20.5,84.5C 18.5,84.5 16.5,84.5 14.5,84.5C 14.5,80.5 14.5,76.5 14.5,72.5 Z"/></g>
<g><path style="opacity:1" fill="#010101" d="M 62.5,72.5 C 64.5,72.5 66.5,72.5 68.5,72.5C 68.5,74.5 68.5,76.5 68.5,78.5C 66.5,78.5 64.5,78.5 62.5,78.5C 62.5,76.5 62.5,74.5 62.5,72.5 Z"/></g>
<g><path style="opacity:1" fill="#030303" d="M 80.5,72.5 C 82.5,72.5 84.5,72.5 86.5,72.5C 86.5,74.5 86.5,76.5 86.5,78.5C 84.5,78.5 82.5,78.5 80.5,78.5C 80.5,76.5 80.5,74.5 80.5,72.5 Z"/></g>
<g><path style="opacity:1" fill="#fafafa" d="M 146.5,78.5 C 144.5,78.5 142.5,78.5 140.5,78.5C 140.5,76.5 140.5,74.5 140.5,72.5C 142.5,72.5 144.5,72.5 146.5,72.5C 146.5,74.5 146.5,76.5 146.5,78.5 Z"/></g>
<g><path style="opacity:1" fill="#050505" d="M 176.5,72.5 C 176.5,74.5 176.5,76.5 176.5,78.5C 174.5,78.5 172.5,78.5 170.5,78.5C 170.5,76.5 170.5,74.5 170.5,72.5C 172.5,72.5 174.5,72.5 176.5,72.5 Z"/></g>
<g><path style="opacity:1" fill="#fbfbfb" d="M 176.5,72.5 C 178.5,72.5 180.5,72.5 182.5,72.5C 182.5,82.5 182.5,92.5 182.5,102.5C 180.5,102.5 178.5,102.5 176.5,102.5C 176.5,96.5 176.5,90.5 176.5,84.5C 174.5,84.5 172.5,84.5 170.5,84.5C 170.5,82.5 170.5,80.5 170.5,78.5C 172.5,78.5 174.5,78.5 176.5,78.5C 176.5,76.5 176.5,74.5 176.5,72.5 Z"/></g>
<g><path style="opacity:1" fill="#020202" d="M 182.5,72.5 C 184.5,72.5 186.5,72.5 188.5,72.5C 188.5,82.5 188.5,92.5 188.5,102.5C 186.5,102.5 184.5,102.5 182.5,102.5C 182.5,92.5 182.5,82.5 182.5,72.5 Z"/></g>
<g><path style="opacity:1" fill="#fcfcfc" d="M 56.5,72.5 C 58.5,72.5 60.5,72.5 62.5,72.5C 62.5,74.5 62.5,76.5 62.5,78.5C 60.5,78.5 58.5,78.5 56.5,78.5C 56.5,76.5 56.5,74.5 56.5,72.5 Z"/></g>
<g><path style="opacity:1" fill="#030303" d="M 56.5,78.5 C 58.5,78.5 60.5,78.5 62.5,78.5C 62.5,80.5 62.5,82.5 62.5,84.5C 60.5,84.5 58.5,84.5 56.5,84.5C 56.5,82.5 56.5,80.5 56.5,78.5 Z"/></g>
<g><path style="opacity:1" fill="#fcfcfc" d="M 62.5,78.5 C 64.5,78.5 66.5,78.5 68.5,78.5C 68.5,80.5 68.5,82.5 68.5,84.5C 66.5,84.5 64.5,84.5 62.5,84.5C 62.5,82.5 62.5,80.5 62.5,78.5 Z"/></g>
<g><path style="opacity:1" fill="#020202" d="M 68.5,78.5 C 70.5,78.5 72.5,78.5 74.5,78.5C 74.5,84.5 74.5,90.5 74.5,96.5C 72.5,96.5 70.5,96.5 68.5,96.5C 68.5,100.5 68.5,104.5 68.5,108.5C 66.5,108.5 64.5,108.5 62.5,108.5C 62.5,100.5 62.5,92.5 62.5,84.5C 64.5,84.5 66.5,84.5 68.5,84.5C 68.5,82.5 68.5,80.5 68.5,78.5 Z"/></g>
<g><path style="opacity:1" fill="#fbfbfb" d="M 146.5,78.5 C 152.5,78.5 158.5,78.5 164.5,78.5C 164.5,80.5 164.5,82.5 164.5,84.5C 162.5,84.5 160.5,84.5 158.5,84.5C 158.5,86.5 158.5,88.5 158.5,90.5C 156.5,90.5 154.5,90.5 152.5,90.5C 152.5,88.5 152.5,86.5 152.5,84.5C 150.5,84.5 148.5,84.5 146.5,84.5C 146.5,82.5 146.5,80.5 146.5,78.5 Z"/></g>
<g><path style="opacity:1" fill="#060606" d="M 164.5,78.5 C 166.5,78.5 168.5,78.5 170.5,78.5C 170.5,80.5 170.5,82.5 170.5,84.5C 168.5,84.5 166.5,84.5 164.5,84.5C 164.5,82.5 164.5,80.5 164.5,78.5 Z"/></g>
<g><path style="opacity:1" fill="#030303" d="M 32.5,90.5 C 30.5,90.5 28.5,90.5 26.5,90.5C 26.5,88.5 26.5,86.5 26.5,84.5C 28.5,84.5 30.5,84.5 32.5,84.5C 32.5,86.5 32.5,88.5 32.5,90.5 Z"/></g>
<g><path style="opacity:1" fill="#030303" d="M 56.5,84.5 C 56.5,86.5 56.5,88.5 56.5,90.5C 54.5,90.5 52.5,90.5 50.5,90.5C 50.5,88.5 50.5,86.5 50.5,84.5C 52.5,84.5 54.5,84.5 56.5,84.5 Z"/></g>
<g><path style="opacity:1" fill="#fcfcfc" d="M 134.5,84.5 C 136.5,84.5 138.5,84.5 140.5,84.5C 140.5,88.5 140.5,92.5 140.5,96.5C 138.5,96.5 136.5,96.5 134.5,96.5C 134.5,92.5 134.5,88.5 134.5,84.5 Z"/></g>
<g><path style="opacity:1" fill="#030303" d="M 164.5,84.5 C 164.5,86.5 164.5,88.5 164.5,90.5C 162.5,90.5 160.5,90.5 158.5,90.5C 158.5,88.5 158.5,86.5 158.5,84.5C 160.5,84.5 162.5,84.5 164.5,84.5 Z"/></g>
<g><path style="opacity:1" fill="#fbfbfb" d="M 164.5,84.5 C 166.5,84.5 168.5,84.5 170.5,84.5C 170.5,90.5 170.5,96.5 170.5,102.5C 168.5,102.5 166.5,102.5 164.5,102.5C 164.5,106.5 164.5,110.5 164.5,114.5C 168.5,114.5 172.5,114.5 176.5,114.5C 176.5,116.5 176.5,118.5 176.5,120.5C 174.5,120.5 172.5,120.5 170.5,120.5C 170.5,122.5 170.5,124.5 170.5,126.5C 172.5,126.5 174.5,126.5 176.5,126.5C 176.5,134.5 176.5,142.5 176.5,150.5C 178.5,150.5 180.5,150.5 182.5,150.5C 182.5,152.5 182.5,154.5 182.5,156.5C 180.5,156.5 178.5,156.5 176.5,156.5C 176.5,158.5 176.5,160.5 176.5,162.5C 174.5,162.5 172.5,162.5 170.5,162.5C 170.5,166.5 170.5,170.5 170.5,174.5C 168.5,174.5 166.5,174.5 164.5,174.5C 164.5,172.5 164.5,170.5 164.5,168.5C 162.5,168.5 160.5,168.5 158.5,168.5C 158.5,170.5 158.5,172.5 158.5,174.5C 156.5,174.5 154.5,174.5 152.5,174.5C 152.5,176.5 152.5,178.5 152.5,180.5C 150.5,180.5 148.5,180.5 146.5,180.5C 146.5,178.5 146.5,176.5 146.5,174.5C 144.5,174.5 142.5,174.5 140.5,174.5C 140.5,172.5 140.5,170.5 140.5,168.5C 138.5,168.5 136.5,168.5 134.5,168.5C 134.5,166.5 134.5,164.5 134.5,162.5C 144.5,162.5 154.5,162.5 164.5,162.5C 164.5,160.5 164.5,158.5 164.5,156.5C 166.5,156.5 168.5,156.5 170.5,156.5C 170.5,154.5 170.5,152.5 170.5,150.5C 168.5,150.5 166.5,150.5 164.5,150.5C 164.5,148.5 164.5,146.5 164.5,144.5C 166.5,144.5 168.5,144.5 170.5,144.5C 170.5,142.5 170.5,140.5 170.5,138.5C 168.5,138.5 166.5,138.5 164.5,138.5C 164.5,136.5 164.5,134.5 164.5,132.5C 160.5,132.5 156.5,132.5 152.5,132.5C 152.5,130.5 152.5,128.5 152.5,126.5C 154.5,126.5 156.5,126.5 158.5,126.5C 158.5,114.5 158.5,102.5 158.5,90.5C 160.5,90.5 162.5,90.5 164.5,90.5C 164.5,88.5 164.5,86.5 164.5,84.5 Z"/></g>
<g><path style="opacity:1" fill="#030303" d="M 170.5,84.5 C 172.5,84.5 174.5,84.5 176.5,84.5C 176.5,90.5 176.5,96.5 176.5,102.5C 174.5,102.5 172.5,102.5 170.5,102.5C 170.5,96.5 170.5,90.5 170.5,84.5 Z"/></g>
<g><path style="opacity:1" fill="#040404" d="M 32.5,96.5 C 32.5,100.5 32.5,104.5 32.5,108.5C 30.5,108.5 28.5,108.5 26.5,108.5C 26.5,106.5 26.5,104.5 26.5,102.5C 22.5,102.5 18.5,102.5 14.5,102.5C 14.5,98.5 14.5,94.5 14.5,90.5C 16.5,90.5 18.5,90.5 20.5,90.5C 20.5,92.5 20.5,94.5 20.5,96.5C 24.5,96.5 28.5,96.5 32.5,96.5 Z"/></g>
<g><path style="opacity:1" fill="#030303" d="M 32.5,90.5 C 36.5,90.5 40.5,90.5 44.5,90.5C 44.5,92.5 44.5,94.5 44.5,96.5C 40.5,96.5 36.5,96.5 32.5,96.5C 32.5,94.5 32.5,92.5 32.5,90.5 Z"/></g>
<g><path style="opacity:1" fill="#fafafa" d="M 32.5,96.5 C 36.5,96.5 40.5,96.5 44.5,96.5C 44.5,102.5 44.5,108.5 44.5,114.5C 42.5,114.5 40.5,114.5 38.5,114.5C 38.5,112.5 38.5,110.5 38.5,108.5C 36.5,108.5 34.5,108.5 32.5,108.5C 32.5,104.5 32.5,100.5 32.5,96.5 Z"/></g>
<g><path style="opacity:1" fill="#030303" d="M 44.5,96.5 C 48.5,96.5 52.5,96.5 56.5,96.5C 56.5,98.5 56.5,100.5 56.5,102.5C 54.5,102.5 52.5,102.5 50.5,102.5C 50.5,104.5 50.5,106.5 50.5,108.5C 52.5,108.5 54.5,108.5 56.5,108.5C 56.5,110.5 56.5,112.5 56.5,114.5C 52.5,114.5 48.5,114.5 44.5,114.5C 44.5,108.5 44.5,102.5 44.5,96.5 Z"/></g>
<g><path style="opacity:1" fill="#fafafa" d="M 146.5,108.5 C 146.5,104.5 146.5,100.5 146.5,96.5C 148.5,96.5 150.5,96.5 152.5,96.5C 152.5,100.5 152.5,104.5 152.5,108.5C 150.5,108.5 148.5,108.5 146.5,108.5 Z"/></g>
<g><path style="opacity:1" fill="#f8f8f8" d="M 116.5,102.5 C 114.5,102.5 112.5,102.5 110.5,102.5C 110.5,100.5 110.5,98.5 110.5,96.5C 112.5,96.5 114.5,96.5 116.5,96.5C 116.5,98.5 116.5,100.5 116.5,102.5 Z"/></g>
<g><path style="opacity:1" fill="#fbfbfb" d="M 92.5,108.5 C 92.5,106.5 92.5,104.5 92.5,102.5C 94.5,102.5 96.5,102.5 98.5,102.5C 98.5,104.5 98.5,106.5 98.5,108.5C 96.5,108.5 94.5,108.5 92.5,108.5 Z"/></g>
<g><path style="opacity:1" fill="#fdfdfd" d="M 110.5,102.5 C 110.5,106.5 110.5,110.5 110.5,114.5C 108.5,114.5 106.5,114.5 104.5,114.5C 104.5,110.5 104.5,106.5 104.5,102.5C 106.5,102.5 108.5,102.5 110.5,102.5 Z"/></g>
<g><path style="opacity:1" fill="#fcfcfc" d="M 116.5,102.5 C 120.5,102.5 124.5,102.5 128.5,102.5C 128.5,108.5 128.5,114.5 128.5,120.5C 126.5,120.5 124.5,120.5 122.5,120.5C 122.5,118.5 122.5,116.5 122.5,114.5C 120.5,114.5 118.5,114.5 116.5,114.5C 116.5,110.5 116.5,106.5 116.5,102.5 Z"/></g>
<g><path style="opacity:1" fill="#f9f9f9" d="M 140.5,108.5 C 138.5,108.5 136.5,108.5 134.5,108.5C 134.5,106.5 134.5,104.5 134.5,102.5C 136.5,102.5 138.5,102.5 140.5,102.5C 140.5,104.5 140.5,106.5 140.5,108.5 Z"/></g>
<g><path style="opacity:1" fill="#030303" d="M 170.5,102.5 C 170.5,104.5 170.5,106.5 170.5,108.5C 172.5,108.5 174.5,108.5 176.5,108.5C 176.5,106.5 176.5,104.5 176.5,102.5C 178.5,102.5 180.5,102.5 182.5,102.5C 182.5,106.5 182.5,110.5 182.5,114.5C 184.5,114.5 186.5,114.5 188.5,114.5C 188.5,118.5 188.5,122.5 188.5,126.5C 186.5,126.5 184.5,126.5 182.5,126.5C 182.5,128.5 182.5,130.5 182.5,132.5C 184.5,132.5 186.5,132.5 188.5,132.5C 188.5,146.5 188.5,160.5 188.5,174.5C 182.5,174.5 176.5,174.5 170.5,174.5C 170.5,170.5 170.5,166.5 170.5,162.5C 172.5,162.5 174.5,162.5 176.5,162.5C 176.5,160.5 176.5,158.5 176.5,156.5C 178.5,156.5 180.5,156.5 182.5,156.5C 182.5,154.5 182.5,152.5 182.5,150.5C 180.5,150.5 178.5,150.5 176.5,150.5C 176.5,142.5 176.5,134.5 176.5,126.5C 174.5,126.5 172.5,126.5 170.5,126.5C 170.5,124.5 170.5,122.5 170.5,120.5C 172.5,120.5 174.5,120.5 176.5,120.5C 176.5,118.5 176.5,116.5 176.5,114.5C 172.5,114.5 168.5,114.5 164.5,114.5C 164.5,110.5 164.5,106.5 164.5,102.5C 166.5,102.5 168.5,102.5 170.5,102.5 Z"/></g>
<g><path style="opacity:1" fill="#fcfcfc" d="M 170.5,102.5 C 172.5,102.5 174.5,102.5 176.5,102.5C 176.5,104.5 176.5,106.5 176.5,108.5C 174.5,108.5 172.5,108.5 170.5,108.5C 170.5,106.5 170.5,104.5 170.5,102.5 Z"/></g>
<g><path style="opacity:1" fill="#030303" d="M 20.5,114.5 C 18.5,114.5 16.5,114.5 14.5,114.5C 14.5,112.5 14.5,110.5 14.5,108.5C 16.5,108.5 18.5,108.5 20.5,108.5C 20.5,110.5 20.5,112.5 20.5,114.5 Z"/></g>
<g><path style="opacity:1" fill="#040404" d="M 32.5,108.5 C 34.5,108.5 36.5,108.5 38.5,108.5C 38.5,110.5 38.5,112.5 38.5,114.5C 36.5,114.5 34.5,114.5 32.5,114.5C 32.5,112.5 32.5,110.5 32.5,108.5 Z"/></g>
<g><path style="opacity:1" fill="#fcfcfc" d="M 140.5,108.5 C 142.5,108.5 144.5,108.5 146.5,108.5C 146.5,112.5 146.5,116.5 146.5,120.5C 144.5,120.5 142.5,120.5 140.5,120.5C 140.5,116.5 140.5,112.5 140.5,108.5 Z"/></g>
<g><path style="opacity:1" fill="#020303" d="M 20.5,114.5 C 24.5,114.5 28.5,114.5 32.5,114.5C 32.5,118.5 32.5,122.5 32.5,126.5C 26.5,126.5 20.5,126.5 14.5,126.5C 14.5,124.5 14.5,122.5 14.5,120.5C 16.5,120.5 18.5,120.5 20.5,120.5C 20.5,118.5 20.5,116.5 20.5,114.5 Z"/></g>
<g><path style="opacity:1" fill="#fafafa" d="M 32.5,114.5 C 34.5,114.5 36.5,114.5 38.5,114.5C 38.5,116.5 38.5,118.5 38.5,120.5C 40.5,120.5 42.5,120.5 44.5,120.5C 44.5,122.5 44.5,124.5 44.5,126.5C 40.5,126.5 36.5,126.5 32.5,126.5C 32.5,122.5 32.5,118.5 32.5,114.5 Z"/></g>
<g><path style="opacity:1" fill="#040404" d="M 38.5,114.5 C 40.5,114.5 42.5,114.5 44.5,114.5C 44.5,116.5 44.5,118.5 44.5,120.5C 42.5,120.5 40.5,120.5 38.5,120.5C 38.5,118.5 38.5,116.5 38.5,114.5 Z"/></g>
<g><path style="opacity:1" fill="#030303" d="M 80.5,126.5 C 80.5,124.5 80.5,122.5 80.5,120.5C 82.5,120.5 84.5,120.5 86.5,120.5C 86.5,122.5 86.5,124.5 86.5,126.5C 84.5,126.5 82.5,126.5 80.5,126.5 Z"/></g>
<g><path style="opacity:1" fill="#fcfcfc" d="M 122.5,120.5 C 122.5,124.5 122.5,128.5 122.5,132.5C 118.5,132.5 114.5,132.5 110.5,132.5C 110.5,130.5 110.5,128.5 110.5,126.5C 112.5,126.5 114.5,126.5 116.5,126.5C 116.5,124.5 116.5,122.5 116.5,120.5C 118.5,120.5 120.5,120.5 122.5,120.5 Z"/></g>
<g><path style="opacity:1" fill="#020202" d="M 140.5,120.5 C 142.5,120.5 144.5,120.5 146.5,120.5C 148.5,120.5 150.5,120.5 152.5,120.5C 152.5,122.5 152.5,124.5 152.5,126.5C 152.5,128.5 152.5,130.5 152.5,132.5C 156.5,132.5 160.5,132.5 164.5,132.5C 164.5,134.5 164.5,136.5 164.5,138.5C 166.5,138.5 168.5,138.5 170.5,138.5C 170.5,140.5 170.5,142.5 170.5,144.5C 168.5,144.5 166.5,144.5 164.5,144.5C 164.5,146.5 164.5,148.5 164.5,150.5C 166.5,150.5 168.5,150.5 170.5,150.5C 170.5,152.5 170.5,154.5 170.5,156.5C 168.5,156.5 166.5,156.5 164.5,156.5C 164.5,158.5 164.5,160.5 164.5,162.5C 154.5,162.5 144.5,162.5 134.5,162.5C 134.5,164.5 134.5,166.5 134.5,168.5C 132.5,168.5 130.5,168.5 128.5,168.5C 128.5,162.5 128.5,156.5 128.5,150.5C 130.5,150.5 132.5,150.5 134.5,150.5C 134.5,146.5 134.5,142.5 134.5,138.5C 132.5,138.5 130.5,138.5 128.5,138.5C 128.5,136.5 128.5,134.5 128.5,132.5C 130.5,132.5 132.5,132.5 134.5,132.5C 134.5,130.5 134.5,128.5 134.5,126.5C 136.5,126.5 138.5,126.5 140.5,126.5C 140.5,124.5 140.5,122.5 140.5,120.5 Z"/></g>
<g><path style="opacity:1" fill="#f9f9f9" d="M 146.5,120.5 C 148.5,120.5 150.5,120.5 152.5,120.5C 152.5,122.5 152.5,124.5 152.5,126.5C 150.5,126.5 148.5,126.5 146.5,126.5C 146.5,124.5 146.5,122.5 146.5,120.5 Z"/></g>
<g><path style="opacity:1" fill="#f9f9f9" d="M 140.5,120.5 C 140.5,122.5 140.5,124.5 140.5,126.5C 138.5,126.5 136.5,126.5 134.5,126.5C 134.5,124.5 134.5,122.5 134.5,120.5C 136.5,120.5 138.5,120.5 140.5,120.5 Z"/></g>
<g><path style="opacity:1" fill="#fbfbfb" d="M 134.5,126.5 C 134.5,128.5 134.5,130.5 134.5,132.5C 132.5,132.5 130.5,132.5 128.5,132.5C 128.5,130.5 128.5,128.5 128.5,126.5C 130.5,126.5 132.5,126.5 134.5,126.5 Z"/></g>
<g><path style="opacity:1" fill="#010101" d="M 32.5,132.5 C 32.5,134.5 32.5,136.5 32.5,138.5C 26.5,138.5 20.5,138.5 14.5,138.5C 14.5,136.5 14.5,134.5 14.5,132.5C 20.5,132.5 26.5,132.5 32.5,132.5 Z"/></g>
<g><path style="opacity:1" fill="#fbfbfb" d="M 122.5,132.5 C 124.5,132.5 126.5,132.5 128.5,132.5C 128.5,134.5 128.5,136.5 128.5,138.5C 130.5,138.5 132.5,138.5 134.5,138.5C 134.5,142.5 134.5,146.5 134.5,150.5C 132.5,150.5 130.5,150.5 128.5,150.5C 128.5,148.5 128.5,146.5 128.5,144.5C 126.5,144.5 124.5,144.5 122.5,144.5C 122.5,140.5 122.5,136.5 122.5,132.5 Z"/></g>
<g><path style="opacity:1" fill="#fafafa" d="M 80.5,150.5 C 80.5,148.5 80.5,146.5 80.5,144.5C 78.5,144.5 76.5,144.5 74.5,144.5C 74.5,142.5 74.5,140.5 74.5,138.5C 78.5,138.5 82.5,138.5 86.5,138.5C 86.5,142.5 86.5,146.5 86.5,150.5C 84.5,150.5 82.5,150.5 80.5,150.5 Z"/></g>
<g><path style="opacity:1" fill="#fcfcfc" d="M 140.5,138.5 C 146.5,138.5 152.5,138.5 158.5,138.5C 158.5,144.5 158.5,150.5 158.5,156.5C 152.5,156.5 146.5,156.5 140.5,156.5C 140.5,150.5 140.5,144.5 140.5,138.5 Z"/></g>
<g><path style="opacity:1" fill="#010201" d="M 14.5,144.5 C 28.5,144.5 42.5,144.5 56.5,144.5C 56.5,158.5 56.5,172.5 56.5,186.5C 42.5,186.5 28.5,186.5 14.5,186.5C 14.5,172.5 14.5,158.5 14.5,144.5 Z"/></g>
<g><path style="opacity:1" fill="#030303" d="M 146.5,144.5 C 148.5,144.5 150.5,144.5 152.5,144.5C 152.5,146.5 152.5,148.5 152.5,150.5C 150.5,150.5 148.5,150.5 146.5,150.5C 146.5,148.5 146.5,146.5 146.5,144.5 Z"/></g>
<g><path style="opacity:1" fill="#fcfcfc" d="M 20.5,150.5 C 30.5,150.5 40.5,150.5 50.5,150.5C 50.5,160.5 50.5,170.5 50.5,180.5C 40.5,180.5 30.5,180.5 20.5,180.5C 20.5,170.5 20.5,160.5 20.5,150.5 Z"/></g>
<g><path style="opacity:1" fill="#fbfbfb" d="M 92.5,156.5 C 92.5,154.5 92.5,152.5 92.5,150.5C 94.5,150.5 96.5,150.5 98.5,150.5C 98.5,152.5 98.5,154.5 98.5,156.5C 96.5,156.5 94.5,156.5 92.5,156.5 Z"/></g>
<g><path style="opacity:1" fill="#010101" d="M 26.5,156.5 C 32.5,156.5 38.5,156.5 44.5,156.5C 44.5,162.5 44.5,168.5 44.5,174.5C 38.5,174.5 32.5,174.5 26.5,174.5C 26.5,168.5 26.5,162.5 26.5,156.5 Z"/></g>
<g><path style="opacity:1" fill="#030303" d="M 80.5,180.5 C 78.5,180.5 76.5,180.5 74.5,180.5C 74.5,174.5 74.5,168.5 74.5,162.5C 76.5,162.5 78.5,162.5 80.5,162.5C 80.5,164.5 80.5,166.5 80.5,168.5C 82.5,168.5 84.5,168.5 86.5,168.5C 86.5,170.5 86.5,172.5 86.5,174.5C 84.5,174.5 82.5,174.5 80.5,174.5C 80.5,176.5 80.5,178.5 80.5,180.5 Z"/></g>
<g><path style="opacity:1" fill="#fbfbfb" d="M 176.5,162.5 C 178.5,162.5 180.5,162.5 182.5,162.5C 182.5,164.5 182.5,166.5 182.5,168.5C 180.5,168.5 178.5,168.5 176.5,168.5C 176.5,166.5 176.5,164.5 176.5,162.5 Z"/></g>
<g><path style="opacity:1" fill="#030303" d="M 74.5,180.5 C 74.5,182.5 74.5,184.5 74.5,186.5C 70.5,186.5 66.5,186.5 62.5,186.5C 62.5,180.5 62.5,174.5 62.5,168.5C 64.5,168.5 66.5,168.5 68.5,168.5C 68.5,172.5 68.5,176.5 68.5,180.5C 70.5,180.5 72.5,180.5 74.5,180.5 Z"/></g>
<g><path style="opacity:1" fill="#040404" d="M 134.5,168.5 C 136.5,168.5 138.5,168.5 140.5,168.5C 140.5,170.5 140.5,172.5 140.5,174.5C 138.5,174.5 136.5,174.5 134.5,174.5C 134.5,172.5 134.5,170.5 134.5,168.5 Z"/></g>
<g><path style="opacity:1" fill="#050505" d="M 164.5,174.5 C 162.5,174.5 160.5,174.5 158.5,174.5C 158.5,172.5 158.5,170.5 158.5,168.5C 160.5,168.5 162.5,168.5 164.5,168.5C 164.5,170.5 164.5,172.5 164.5,174.5 Z"/></g>
<g><path style="opacity:1" fill="#030303" d="M 80.5,180.5 C 84.5,180.5 88.5,180.5 92.5,180.5C 92.5,178.5 92.5,176.5 92.5,174.5C 94.5,174.5 96.5,174.5 98.5,174.5C 98.5,178.5 98.5,182.5 98.5,186.5C 92.5,186.5 86.5,186.5 80.5,186.5C 80.5,184.5 80.5,182.5 80.5,180.5 Z"/></g>
<g><path style="opacity:1" fill="#050505" d="M 134.5,174.5 C 134.5,176.5 134.5,178.5 134.5,180.5C 130.5,180.5 126.5,180.5 122.5,180.5C 122.5,178.5 122.5,176.5 122.5,174.5C 126.5,174.5 130.5,174.5 134.5,174.5 Z"/></g>
<g><path style="opacity:1" fill="#fcfcfc" d="M 134.5,174.5 C 136.5,174.5 138.5,174.5 140.5,174.5C 140.5,176.5 140.5,178.5 140.5,180.5C 138.5,180.5 136.5,180.5 134.5,180.5C 134.5,178.5 134.5,176.5 134.5,174.5 Z"/></g>
<g><path style="opacity:1" fill="#030303" d="M 140.5,174.5 C 142.5,174.5 144.5,174.5 146.5,174.5C 146.5,176.5 146.5,178.5 146.5,180.5C 148.5,180.5 150.5,180.5 152.5,180.5C 152.5,178.5 152.5,176.5 152.5,174.5C 154.5,174.5 156.5,174.5 158.5,174.5C 158.5,176.5 158.5,178.5 158.5,180.5C 160.5,180.5 162.5,180.5 164.5,180.5C 164.5,178.5 164.5,176.5 164.5,174.5C 166.5,174.5 168.5,174.5 170.5,174.5C 170.5,178.5 170.5,182.5 170.5,186.5C 158.5,186.5 146.5,186.5 134.5,186.5C 134.5,184.5 134.5,182.5 134.5,180.5C 136.5,180.5 138.5,180.5 140.5,180.5C 140.5,178.5 140.5,176.5 140.5,174.5 Z"/></g>
<g><path style="opacity:1" fill="#fbfbfb" d="M 158.5,174.5 C 160.5,174.5 162.5,174.5 164.5,174.5C 164.5,176.5 164.5,178.5 164.5,180.5C 162.5,180.5 160.5,180.5 158.5,180.5C 158.5,178.5 158.5,176.5 158.5,174.5 Z"/></g>
<g><path style="opacity:1" fill="#040404" d="M 122.5,180.5 C 122.5,182.5 122.5,184.5 122.5,186.5C 120.5,186.5 118.5,186.5 116.5,186.5C 116.5,184.5 116.5,182.5 116.5,180.5C 118.5,180.5 120.5,180.5 122.5,180.5 Z"/></g>
<g><path style="opacity:1" fill="#020202" d="M 182.5,180.5 C 184.5,180.5 186.5,180.5 188.5,180.5C 188.5,182.5 188.5,184.5 188.5,186.5C 186.5,186.5 184.5,186.5 182.5,186.5C 182.5,184.5 182.5,182.5 182.5,180.5 Z"/></g>
</svg>
